<svg xmlns="http://www.w3.org/2000/svg" viewBox="0 0 512 512" width="512" height="512">
  <defs>
    <linearGradient id="bg" x1="0%" y1="0%" x2="100%" y2="100%">
      <stop offset="0%" style="stop-color:#4f46e5"/>
      <stop offset="100%" style="stop-color:#7c3aed"/>
    </linearGradient>
  </defs>
  <rect width="512" height="512" rx="80" fill="url(#bg)"/>
  <!-- Book -->
  <g transform="translate(156,120)" fill="none" stroke="#fff" stroke-width="18" stroke-linecap="round" stroke-linejoin="round">
    <path d="M0,40V260c0,0 50,-20 100,-20s100,20 100,20V40c0,0 -50,20 -100,20S0,40 0,40z"/>
    <line x1="100" y1="20" x2="100" y2="260"/>
    <line x1="30" y1="80" x2="70" y2="80"/>
    <line x1="30" y1="120" x2="70" y2="120"/>
    <line x1="30" y1="160" x2="70" y2="160"/>
    <line x1="130" y1="80" x2="170" y2="80"/>
    <line x1="130" y1="120" x2="170" y2="120"/>
    <line x1="130" y1="160" x2="170" y2="160"/>
  </g>
  <!-- Sparkle -->
  <circle cx="370" cy="140" r="12" fill="#fbbf24"/>
  <circle cx="370" cy="140" r="6" fill="#fef3c7"/>
  <circle cx="390" cy="380" r="10" fill="#fbbf24"/>
  <circle cx="390" cy="380" r="5" fill="#fef3c7"/>
</svg>
